<svg width="24" height="25" viewBox="0 0 24 25" fill="none" xmlns="http://www.w3.org/2000/svg">
<g id="icon/navigation/arrow_forward_24px">
<path id="icon/navigation/arrow_forward_24px_2" d="M5.20898 13.5H16.379L11.499 18.38C11.109 18.77 11.109 19.41 11.499 19.8C11.889 20.19 12.519 20.19 12.909 19.8L19.499 13.21C19.889 12.82 19.889 12.19 19.499 11.8L12.919 5.19996C12.7322 5.0127 12.4785 4.90747 12.214 4.90747C11.9495 4.90747 11.6958 5.0127 11.509 5.19996C11.119 5.58996 11.119 6.21996 11.509 6.60996L16.379 11.5H5.20898C4.65898 11.5 4.20898 11.95 4.20898 12.5C4.20898 13.05 4.65898 13.5 5.20898 13.5Z" fill="#7676B2"/>
</g>
</svg>
